<svg version="1.1" id="Layer_1" xmlns="http://www.w3.org/2000/svg" xmlns:xlink="http://www.w3.org/1999/xlink" x="0px" y="0px"
	 width="100%" viewBox="0 0 1408 768" enable-background="new 0 0 1408 768" xml:space="preserve">
<path fill="#FFFFFF" opacity="1.000000" stroke="none" 
	d="
M922.000000,769.000000 
	C614.701843,769.000000 307.903717,769.000000 1.052781,769.000000 
	C1.052781,513.064575 1.052781,257.129089 1.052781,1.096818 
	C470.214935,1.096818 939.429932,1.096818 1408.822510,1.096818 
	C1408.822510,256.999908 1408.822510,512.999939 1408.822510,769.000000 
	C1246.795532,769.000000 1084.647705,769.000000 922.000000,769.000000 
M736.993896,363.962982 
	C736.993896,363.962982 736.937134,363.895416 736.301575,364.023560 
	C735.529114,363.359558 734.756714,362.695557 734.004578,362.004578 
	C734.004578,362.004578 733.972534,362.012695 733.812012,361.374084 
	C732.218506,359.898285 730.624939,358.422455 729.006836,357.003143 
	C729.006836,357.003143 729.055237,356.964905 728.740295,356.365509 
	C714.532166,346.702698 695.046509,346.985687 682.395935,357.311066 
	C680.635437,358.839691 678.874878,360.368317 677.223694,360.894623 
	C677.223694,357.993622 677.223694,355.092621 677.223694,352.264465 
	C667.708740,352.264465 658.797913,352.264465 649.647095,352.264465 
	C649.647095,388.241882 649.647095,423.928986 649.647095,460.067200 
	C657.005005,460.067200 664.125305,460.137024 671.242676,460.022156 
	C673.222656,459.990204 675.193787,459.411591 677.538269,458.340973 
	C677.563538,437.571777 677.588806,416.802612 677.889709,395.297607 
	C679.225708,391.197601 680.561646,387.097565 682.172241,382.851624 
	C682.172241,382.851624 682.184875,382.540863 682.792175,382.151855 
	C690.162781,374.712585 698.215942,373.689209 708.297119,379.458649 
	C708.878357,379.968353 709.459656,380.478058 710.199890,381.617950 
	C710.731750,382.287659 711.263550,382.957367 711.771667,383.868500 
	C711.771667,383.868500 711.975159,384.000549 712.028625,384.757660 
	C712.894897,387.532776 713.761108,390.307892 714.484924,394.000854 
	C714.524536,396.980743 714.583008,399.960510 714.600769,402.940552 
	C714.712097,421.637115 714.814392,440.333740 715.096680,459.775238 
	C724.162170,459.775238 733.227722,459.775238 742.686584,459.775238 
	C742.686584,457.715729 742.684692,455.910522 742.686768,454.105316 
	C742.708008,435.689606 742.793701,417.273651 742.719055,398.858307 
	C742.690430,391.802307 744.320435,385.429504 749.011292,380.005005 
	C749.011292,380.005005 749.052917,380.082306 749.667297,379.882599 
	C750.304932,379.317719 750.942566,378.752869 751.859985,378.211823 
	C751.859985,378.211823 751.999329,377.968109 752.782837,377.850830 
	C759.732788,374.576324 766.461121,375.064301 773.160522,379.505859 
	C773.359375,379.801636 773.636108,379.967987 774.242676,380.660217 
	C775.827942,383.773682 777.413269,386.887146 778.923279,390.518707 
	C778.994324,390.678101 779.065308,390.837524 779.036682,391.637848 
	C779.265564,392.447784 779.494446,393.257690 779.600708,394.990173 
	C779.645081,397.469116 779.720642,399.947937 779.728821,402.427002 
	C779.789124,420.607208 779.835815,438.787415 779.609680,457.541199 
	C780.116333,458.375885 780.610779,459.929321 781.131470,459.938171 
	C789.925842,460.087799 798.723511,460.045227 807.866760,460.045227 
	C807.730286,457.171875 807.630432,455.070648 807.720276,452.054169 
	C807.651550,446.050842 807.582825,440.047516 807.758179,433.134521 
	C807.665466,428.412476 807.572754,423.690460 807.685303,418.119934 
	C807.626038,416.095978 807.566833,414.072021 807.766541,411.253754 
	C807.685913,410.152496 807.605286,409.051270 807.712952,407.038483 
	C807.449463,400.028503 807.185913,393.018555 807.058167,385.170624 
	C805.624512,376.628082 803.305786,368.471497 796.757080,361.470093 
	C795.807373,360.656219 794.857666,359.842377 793.614319,358.467773 
	C792.417175,357.633270 791.219971,356.798767 790.006531,356.004425 
	C790.006531,356.004425 790.038635,355.973602 789.653076,355.407959 
	C773.607666,346.005219 753.109436,347.542847 740.638000,359.294739 
	C740.031006,360.021881 739.424011,360.749054 738.245361,361.785797 
	C737.799500,362.505341 737.353577,363.224854 736.993896,363.962982 
M935.032104,352.349701 
	C934.444153,352.324554 933.856201,352.299408 932.671875,352.064240 
	C931.120728,352.117645 929.569641,352.171051 927.100708,352.011169 
	C920.823303,352.011169 914.545898,352.011169 907.730957,352.011169 
	C907.730957,355.686371 907.730957,358.879791 907.730957,361.325165 
	C902.086609,358.074463 896.891479,353.901367 890.963074,351.894897 
	C874.753296,346.408752 859.301208,349.149750 845.523804,359.217926 
	C820.272644,377.670807 815.874084,416.900116 835.502625,443.390930 
	C854.054016,468.428162 892.084656,468.118500 906.344849,449.375519 
	C906.459778,449.224518 906.947021,449.356781 907.705139,449.356781 
	C907.705139,452.815918 907.705139,456.265137 907.705139,460.040039 
	C914.959229,460.040039 921.774109,460.120453 928.585022,459.993011 
	C930.741516,459.952667 932.887573,459.357330 935.349182,458.120789 
	C935.364929,424.888428 935.385864,391.656067 935.382080,358.423706 
	C935.381836,356.611420 935.173767,354.799133 935.032104,352.349701 
M488.525360,459.503815 
	C489.232330,459.602539 489.939270,459.701294 491.185516,459.940186 
	C491.736145,459.895905 492.286743,459.851624 493.647003,460.019867 
	C499.123016,460.028717 504.601593,460.136993 510.073761,459.996338 
	C512.185913,459.942017 514.283630,459.322601 516.681091,458.070282 
	C516.678894,424.264862 516.697510,390.459412 516.604492,356.654236 
	C516.600464,355.184631 515.570557,353.717865 514.100525,352.061035 
	C509.392853,352.128113 504.685181,352.195190 499.118561,352.110138 
	C495.666504,352.110138 492.214478,352.110138 488.311920,352.110138 
	C488.311920,353.937927 488.311554,355.390869 488.312012,356.843811 
	C488.321686,388.736572 488.325226,420.629333 488.355347,452.522095 
	C488.357361,454.663208 488.560852,456.804108 488.525360,459.503815 
M1181.972656,354.538513 
	C1174.504883,381.266357 1174.644409,407.599884 1187.076416,432.926575 
	C1196.772095,452.678650 1212.906372,462.932526 1235.084351,462.820862 
	C1257.156006,462.709686 1273.187866,452.001923 1282.325317,432.477325 
	C1295.826416,403.628265 1295.586670,373.914551 1283.038452,344.826416 
	C1275.188965,326.630493 1260.849365,315.262146 1240.663818,313.317535 
	C1220.034546,311.330200 1202.865356,318.348114 1191.121460,335.987030 
	C1187.472290,341.467957 1185.133179,347.821136 1181.972656,354.538513 
M1140.193848,368.226074 
	C1132.648682,366.221649 1125.103394,364.217224 1117.209961,362.120300 
	C1127.219849,347.106842 1137.368042,331.886047 1148.088745,315.806335 
	C1137.581421,315.806335 1128.423950,315.584625 1119.291748,315.967346 
	C1117.099365,316.059265 1114.173462,317.613678 1112.969238,319.418915 
	C1099.300537,339.910278 1085.578003,360.379456 1072.530762,381.267334 
	C1061.933350,398.233307 1059.383423,416.451202 1068.220947,435.069733 
	C1077.434326,454.480042 1096.362183,464.290253 1120.309570,462.728851 
	C1142.906250,461.255524 1161.192505,445.517426 1165.692627,423.669647 
	C1170.314453,401.231445 1159.999390,378.357666 1140.193848,368.226074 
M1038.975586,448.478668 
	C1049.877197,437.405670 1053.285645,423.880310 1051.038940,408.955963 
	C1048.312256,390.842194 1037.022583,379.770355 1019.707153,373.997894 
	C1020.754883,372.454346 1021.432251,371.347321 1022.214844,370.320496 
	C1029.077271,361.316742 1035.990723,352.351562 1042.805542,343.311981 
	C1044.083252,341.617096 1045.819946,339.685150 1045.918823,337.788208 
	C1046.288940,330.694000 1046.066772,323.568878 1046.066772,316.143311 
	C1015.758545,316.143311 986.067139,316.143311 956.174011,316.143311 
	C956.174011,325.065063 956.174011,333.613037 956.174011,343.003540 
	C973.967529,343.003540 991.425110,343.003540 1010.214478,343.003540 
	C1003.199951,352.253723 997.009277,360.259338 990.990295,368.391968 
	C982.009705,380.526062 981.984558,380.614960 990.239929,393.060150 
	C991.213867,394.528351 993.497681,395.625061 995.332581,395.924530 
	C999.573792,396.616760 1004.025513,396.213837 1008.187317,397.157349 
	C1016.681213,399.082947 1022.256226,406.139313 1022.769470,414.663605 
	C1023.278687,423.122742 1018.357483,430.428131 1010.033691,433.569153 
	C997.272461,438.384644 983.801514,433.432617 977.196106,421.508667 
	C976.645264,420.514435 976.022705,419.559967 975.165649,418.144684 
	C968.361145,422.054565 961.865295,426.083862 955.090698,429.571594 
	C950.833191,431.763458 951.087952,433.956390 953.107361,437.724182 
	C970.259277,469.725433 1020.140320,468.792114 1038.975586,448.478668 
M562.897095,417.268982 
	C562.357849,414.835602 561.633057,412.426605 561.310120,409.964844 
	C559.493042,396.114105 566.778992,382.824371 578.632874,378.182007 
	C591.145325,373.281677 603.850708,377.734070 612.433655,390.000244 
	C612.585510,390.217285 613.024963,390.233154 613.654114,390.459320 
	C620.932007,385.949310 628.382080,381.332642 635.789856,376.742126 
	C625.901245,355.759552 600.123840,344.877228 575.095276,350.816650 
	C549.182312,356.965912 532.241699,380.184479 533.086853,408.392792 
	C533.891724,435.257904 551.974915,457.226318 577.054504,461.807098 
	C602.527100,466.459656 627.657104,454.733032 635.832153,434.066925 
	C628.124390,429.768860 620.370667,425.445190 612.530334,421.073242 
	C606.539612,431.606842 597.879150,436.711731 586.290833,435.735779 
	C574.992493,434.784302 567.120728,428.801880 562.897095,417.268982 
M146.316254,415.612946 
	C147.798340,415.407654 149.296692,415.282257 150.759933,414.984436 
	C162.844849,412.524414 171.261703,402.862244 172.429901,390.154572 
	C173.504349,378.466766 166.289398,367.236694 154.833344,362.765503 
	C144.002258,358.538239 131.251266,362.117218 123.913765,371.507477 
	C117.415176,379.824188 115.956863,389.082153 120.049011,398.725983 
	C124.725632,409.747162 133.511871,415.233612 146.316254,415.612946 
M403.633148,492.148010 
	C405.531158,489.645935 407.750610,487.323883 409.270538,484.610077 
	C415.270844,473.896881 412.551117,460.085602 402.976105,451.503876 
	C394.012604,443.470245 379.955261,442.587250 370.189697,449.444427 
	C357.237396,458.539246 354.027954,475.787170 362.991394,488.129150 
	C372.367798,501.039734 389.502899,502.958771 403.633148,492.148010 
M358.761169,261.783508 
	C358.480255,260.146790 358.295410,258.486633 357.903290,256.876984 
	C354.458221,242.734222 340.000732,233.879242 325.677338,237.105316 
	C311.332642,240.336227 301.838531,255.154388 305.035492,269.322540 
	C308.140991,283.085480 320.656738,292.212250 334.479645,290.793884 
	C348.417328,289.363739 358.429840,277.782593 358.761169,261.783508 
M192.024078,470.446106 
	C178.755371,456.204651 169.927277,439.397827 164.251282,421.705627 
	C156.496338,423.352905 149.295792,424.882385 141.184891,426.605255 
	C156.491730,474.850189 186.866882,509.718689 235.829208,526.185181 
	C282.574127,541.905945 326.173462,533.850586 366.116943,505.706451 
	C360.467773,499.373230 355.452362,493.750519 350.435974,488.126709 
	C297.780426,525.258179 230.458832,512.889282 192.024078,470.446106 
M234.996323,444.487427 
	C264.714600,468.701508 304.614288,466.694916 331.874329,439.615448 
	C355.076599,416.566864 359.702332,380.685455 343.146027,352.180939 
	C326.510010,323.539246 293.210510,309.566956 261.690430,318.786591 
	C234.949066,326.608398 217.420166,344.459747 210.917221,371.503723 
	C204.057892,400.029846 212.694977,424.371552 234.996323,444.487427 
M519.374817,318.247620 
	C518.984497,317.333008 518.661255,316.382446 518.193420,315.509399 
	C514.031494,307.742493 506.604889,304.536591 498.036987,306.778442 
	C489.871796,308.914978 484.678864,315.939728 484.920715,324.521576 
	C485.164490,333.172058 490.648926,339.820618 498.960449,341.541565 
	C512.336121,344.311005 522.162170,333.601105 519.374817,318.247620 
M191.204346,306.728668 
	C219.107498,277.001160 253.429199,263.902008 293.507233,267.312836 
	C295.022614,259.557465 296.468811,252.156067 298.018829,244.223450 
	C263.890350,240.487640 231.692352,247.344681 202.477158,266.508545 
	C171.637283,286.738098 151.129608,314.659576 141.475449,349.761993 
	C149.360229,351.663330 156.665787,353.424988 164.370270,355.282837 
	C169.360123,337.593964 178.145218,321.369202 191.204346,306.728668 
M407.830811,442.603973 
	C409.344849,443.834167 410.858856,445.064362 413.040100,446.836639 
	C426.898071,415.276215 429.341583,383.379517 420.566498,350.781189 
	C412.013489,319.007782 394.490631,293.046722 368.897888,273.233887 
	C364.544586,280.139923 360.529480,286.509460 356.593506,292.753479 
	C399.731842,331.978333 412.839661,379.303345 393.263702,435.065369 
	C397.853333,437.398224 402.545715,439.783295 407.830811,442.603973 
z"/>
<path fill="#30B670" opacity="1.000000" stroke="none" 
	d="
M1182.083496,354.156799 
	C1185.133179,347.821136 1187.472290,341.467957 1191.121460,335.987030 
	C1202.865356,318.348114 1220.034546,311.330200 1240.663818,313.317535 
	C1260.849365,315.262146 1275.188965,326.630493 1283.038452,344.826416 
	C1295.586670,373.914551 1295.826416,403.628265 1282.325317,432.477325 
	C1273.187866,452.001923 1257.156006,462.709686 1235.084351,462.820862 
	C1212.906372,462.932526 1196.772095,452.678650 1187.076416,432.926575 
	C1174.644409,407.599884 1174.504883,381.266357 1182.083496,354.156799 
M1236.218262,341.180786 
	C1223.802246,341.108032 1215.618530,346.886810 1211.092651,359.281982 
	C1205.940918,373.390503 1205.356323,388.044861 1207.863159,402.607086 
	C1209.134399,409.991364 1211.556519,417.633118 1215.352295,424.035675 
	C1224.215088,438.984589 1245.149902,438.652618 1254.307007,423.873657 
	C1256.643799,420.102112 1258.582520,415.892456 1259.750488,411.623169 
	C1263.723267,397.100555 1264.410522,382.331818 1260.531860,367.708740 
	C1257.195557,355.129333 1252.362061,343.418365 1236.218262,341.180786 
z"/>
<path fill="#121D34" opacity="1.000000" stroke="none" 
	d="
M711.975159,384.000549 
	C711.975159,384.000549 711.771667,383.868500 711.814819,383.375000 
	C711.252319,382.250275 710.646667,381.619019 710.040955,380.987793 
	C709.459656,380.478058 708.878357,379.968353 708.095337,378.854248 
	C702.591675,373.131317 696.245239,373.062439 689.945129,375.325073 
	C686.645325,376.510071 682.437378,377.660370 682.184875,382.540863 
	C682.184875,382.540863 682.172241,382.851624 681.679260,382.972137 
	C679.456482,387.377625 677.726624,391.662598 675.996582,396.419556 
	C675.980286,417.264679 675.964294,437.637878 675.482910,458.008667 
	C668.856873,458.005524 662.681213,457.741364 656.540894,458.093658 
	C652.208069,458.342255 650.832642,457.106506 650.882935,452.587372 
	C651.124207,430.944855 650.991760,409.298157 650.992249,387.652954 
	C650.992493,377.829346 650.903259,368.004028 651.094421,358.184143 
	C651.121643,356.790192 652.463257,354.258759 653.278748,354.224701 
	C660.696533,353.915070 668.132690,354.043091 675.267334,354.043091 
	C675.997314,357.147034 676.555847,359.521973 677.114380,361.896912 
	C678.874878,360.368317 680.635437,358.839691 683.116089,357.157776 
	C684.774231,356.717590 685.796997,356.584076 686.637329,356.120178 
	C695.174927,351.407013 704.205688,349.588074 713.741516,352.004486 
	C718.931824,353.319672 723.956116,355.290039 729.055237,356.964905 
	C729.055237,356.964905 729.006836,357.003143 729.041809,357.321899 
	C730.708679,359.098022 732.340637,360.555359 733.972534,362.012695 
	C733.972534,362.012695 734.004578,362.004578 734.000000,362.375610 
	C734.603333,363.697723 735.211304,364.648804 735.819275,365.599854 
	C736.191895,365.031708 736.564514,364.463562 736.937134,363.895416 
	C736.937134,363.895416 736.993896,363.962982 737.317810,363.904968 
	C738.033447,363.056702 738.425232,362.266449 738.817017,361.476227 
	C739.424011,360.749054 740.031006,360.021881 741.257935,359.153198 
	C742.649658,358.750427 743.543274,358.658051 744.175110,358.202576 
	C753.449707,351.517792 763.725220,349.629425 774.779968,351.984009 
	C779.916443,353.078033 784.955444,354.629517 790.038635,355.973602 
	C790.038635,355.973602 790.006531,356.004425 790.045715,356.338287 
	C791.359253,357.457611 792.633606,358.243073 793.907959,359.028503 
	C794.857666,359.842377 795.807373,360.656219 796.877808,362.134308 
	C799.990051,370.529083 802.981567,378.259674 805.981201,386.459778 
	C805.992310,393.968994 805.995422,401.008667 806.001465,408.437561 
	C806.002502,409.868378 806.000488,410.910034 805.996948,412.393311 
	C805.995911,414.896362 805.996460,416.957703 806.000122,419.483948 
	C806.000549,424.621246 805.997803,429.293671 805.997620,434.436462 
	C805.998413,440.949005 805.996765,446.991180 805.998718,453.434204 
	C805.925964,455.282654 805.849609,456.730164 805.723145,459.126526 
	C797.261719,458.402344 789.157349,457.708740 781.034607,456.545166 
	C781.012451,435.368134 781.008667,414.661011 780.996582,393.614868 
	C780.370911,392.516205 779.753540,391.756561 779.136230,390.996948 
	C779.065308,390.837524 778.994324,390.678101 779.211182,390.042908 
	C778.566101,385.859406 779.156738,381.274017 773.990662,380.004883 
	C773.636108,379.967987 773.359375,379.801636 773.024963,378.918152 
	C766.353455,372.498230 756.885620,372.334015 751.999329,377.968109 
	C751.999329,377.968109 751.859985,378.211823 751.343567,378.177368 
	C750.235718,378.789398 749.644287,379.435852 749.052917,380.082306 
	C749.052917,380.082306 749.011292,380.005005 748.689697,380.046692 
	C747.120728,381.319550 745.201111,382.344513 744.748840,383.819427 
	C743.221069,388.801117 741.295898,393.920563 741.173828,399.026794 
	C740.745422,416.952576 740.878784,434.896362 741.098877,452.829651 
	C741.150574,457.041931 739.839905,458.278534 735.742493,458.086548 
	C729.199097,457.779938 722.630554,458.010864 716.049194,457.544861 
	C716.018860,435.693176 716.011841,414.311188 715.999573,392.540466 
	C714.654541,389.434692 713.314819,386.717621 711.975159,384.000549 
z"/>
<path fill="#2FB66F" opacity="1.000000" stroke="none" 
	d="
M1140.523804,368.407501 
	C1159.999390,378.357666 1170.314453,401.231445 1165.692627,423.669647 
	C1161.192505,445.517426 1142.906250,461.255524 1120.309570,462.728851 
	C1096.362183,464.290253 1077.434326,454.480042 1068.220947,435.069733 
	C1059.383423,416.451202 1061.933350,398.233307 1072.530762,381.267334 
	C1085.578003,360.379456 1099.300537,339.910278 1112.969238,319.418915 
	C1114.173462,317.613678 1117.099365,316.059265 1119.291748,315.967346 
	C1128.423950,315.584625 1137.581421,315.806335 1148.088745,315.806335 
	C1137.368042,331.886047 1127.219849,347.106842 1117.209961,362.120300 
	C1125.103394,364.217224 1132.648682,366.221649 1140.523804,368.407501 
M1130.034912,430.612701 
	C1137.523315,423.360626 1139.198120,414.493683 1136.316040,404.900116 
	C1132.608398,392.558380 1118.369019,386.664246 1105.686523,391.768005 
	C1093.909424,396.507385 1088.647217,411.696075 1094.554077,423.900085 
	C1100.463501,436.109558 1116.648193,439.436768 1130.034912,430.612701 
z"/>
<path fill="#111C33" opacity="1.000000" stroke="none" 
	d="
M935.038452,459.015991 
	C932.887573,459.357330 930.741516,459.952667 928.585022,459.993011 
	C921.774109,460.120453 914.959229,460.040039 907.705139,460.040039 
	C907.705139,456.265137 907.705139,452.815918 907.705139,449.356781 
	C906.947021,449.356781 906.459778,449.224518 906.344849,449.375519 
	C892.084656,468.118500 854.054016,468.428162 835.502625,443.390930 
	C815.874084,416.900116 820.272644,377.670807 845.523804,359.217926 
	C859.301208,349.149750 874.753296,346.408752 890.963074,351.894897 
	C896.891479,353.901367 902.086609,358.074463 907.730957,361.325165 
	C907.730957,358.879791 907.730957,355.686371 907.730957,352.011169 
	C914.545898,352.011169 920.823303,352.011169 927.665161,352.478333 
	C930.002136,353.563568 931.774658,354.181610 933.994202,354.955536 
	C933.994202,356.622314 933.994019,358.419128 933.994202,360.215912 
	C933.997559,391.266815 933.983093,422.317719 934.048706,453.368500 
	C934.052673,455.251709 934.693787,457.133514 935.038452,459.015991 
M886.311707,376.936676 
	C871.770813,374.177704 859.854004,380.070465 854.302307,392.764923 
	C848.581909,405.845276 852.392151,423.106537 862.947388,430.902557 
	C865.304749,432.643677 868.104858,434.027954 870.912598,434.876526 
	C886.478943,439.581085 901.403809,431.638458 906.095520,416.361725 
	C911.311096,399.379578 903.370422,380.861816 886.311707,376.936676 
z"/>
<path fill="#2FB670" opacity="1.000000" stroke="none" 
	d="
M1038.724609,448.728760 
	C1020.140320,468.792114 970.259277,469.725433 953.107361,437.724182 
	C951.087952,433.956390 950.833191,431.763458 955.090698,429.571594 
	C961.865295,426.083862 968.361145,422.054565 975.165649,418.144684 
	C976.022705,419.559967 976.645264,420.514435 977.196106,421.508667 
	C983.801514,433.432617 997.272461,438.384644 1010.033691,433.569153 
	C1018.357483,430.428131 1023.278687,423.122742 1022.769470,414.663605 
	C1022.256226,406.139313 1016.681213,399.082947 1008.187317,397.157349 
	C1004.025513,396.213837 999.573792,396.616760 995.332581,395.924530 
	C993.497681,395.625061 991.213867,394.528351 990.239929,393.060150 
	C981.984558,380.614960 982.009705,380.526062 990.990295,368.391968 
	C997.009277,360.259338 1003.199951,352.253723 1010.214478,343.003540 
	C991.425110,343.003540 973.967529,343.003540 956.174011,343.003540 
	C956.174011,333.613037 956.174011,325.065063 956.174011,316.143311 
	C986.067139,316.143311 1015.758545,316.143311 1046.066772,316.143311 
	C1046.066772,323.568878 1046.288940,330.694000 1045.918823,337.788208 
	C1045.819946,339.685150 1044.083252,341.617096 1042.805542,343.311981 
	C1035.990723,352.351562 1029.077271,361.316742 1022.214844,370.320496 
	C1021.432251,371.347321 1020.754883,372.454346 1019.707153,373.997894 
	C1037.022583,379.770355 1048.312256,390.842194 1051.038940,408.955963 
	C1053.285645,423.880310 1049.877197,437.405670 1038.724609,448.728760 
z"/>
<path fill="#111C33" opacity="1.000000" stroke="none" 
	d="
M562.998962,417.654907 
	C567.120728,428.801880 574.992493,434.784302 586.290833,435.735779 
	C597.879150,436.711731 606.539612,431.606842 612.530334,421.073242 
	C620.370667,425.445190 628.124390,429.768860 635.832153,434.066925 
	C627.657104,454.733032 602.527100,466.459656 577.054504,461.807098 
	C551.974915,457.226318 533.891724,435.257904 533.086853,408.392792 
	C532.241699,380.184479 549.182312,356.965912 575.095276,350.816650 
	C600.123840,344.877228 625.901245,355.759552 635.789856,376.742126 
	C628.382080,381.332642 620.932007,385.949310 613.654114,390.459320 
	C613.024963,390.233154 612.585510,390.217285 612.433655,390.000244 
	C603.850708,377.734070 591.145325,373.281677 578.632874,378.182007 
	C566.778992,382.824371 559.493042,396.114105 561.310120,409.964844 
	C561.633057,412.426605 562.357849,414.835602 562.998962,417.654907 
z"/>
<path fill="#172238" opacity="1.000000" stroke="none" 
	d="
M499.977509,352.262268 
	C504.685181,352.195190 509.392853,352.128113 514.557251,352.608032 
	C515.008728,386.804382 514.984192,420.453766 515.057373,454.102936 
	C515.060852,455.723145 515.924683,457.341461 516.387878,458.960632 
	C514.283630,459.322601 512.185913,459.942017 510.073761,459.996338 
	C504.601593,460.136993 499.123016,460.028717 493.154846,459.508850 
	C491.780396,456.907471 490.140656,454.821106 490.129517,452.726105 
	C489.964142,421.660553 490.009766,390.593872 490.027100,359.527435 
	C490.028076,357.789551 490.217285,356.051788 490.272888,355.101074 
	C494.068329,353.990845 497.022919,353.126556 499.977509,352.262268 
z"/>
<path fill="#33B571" opacity="1.000000" stroke="none" 
	d="
M145.894485,415.617096 
	C133.511871,415.233612 124.725632,409.747162 120.049011,398.725983 
	C115.956863,389.082153 117.415176,379.824188 123.913765,371.507477 
	C131.251266,362.117218 144.002258,358.538239 154.833344,362.765503 
	C166.289398,367.236694 173.504349,378.466766 172.429901,390.154572 
	C171.261703,402.862244 162.844849,412.524414 150.759933,414.984436 
	C149.296692,415.282257 147.798340,415.407654 145.894485,415.617096 
z"/>
<path fill="#32B571" opacity="1.000000" stroke="none" 
	d="
M403.365387,492.384460 
	C389.502899,502.958771 372.367798,501.039734 362.991394,488.129150 
	C354.027954,475.787170 357.237396,458.539246 370.189697,449.444427 
	C379.955261,442.587250 394.012604,443.470245 402.976105,451.503876 
	C412.551117,460.085602 415.270844,473.896881 409.270538,484.610077 
	C407.750610,487.323883 405.531158,489.645935 403.365387,492.384460 
z"/>
<path fill="#33B571" opacity="1.000000" stroke="none" 
	d="
M358.786530,262.216553 
	C358.429840,277.782593 348.417328,289.363739 334.479645,290.793884 
	C320.656738,292.212250 308.140991,283.085480 305.035492,269.322540 
	C301.838531,255.154388 311.332642,240.336227 325.677338,237.105316 
	C340.000732,233.879242 354.458221,242.734222 357.903290,256.876984 
	C358.295410,258.486633 358.480255,260.146790 358.786530,262.216553 
z"/>
<path fill="#4770B3" opacity="1.000000" stroke="none" 
	d="
M192.255508,470.713928 
	C230.458832,512.889282 297.780426,525.258179 350.435974,488.126709 
	C355.452362,493.750519 360.467773,499.373230 366.116943,505.706451 
	C326.173462,533.850586 282.574127,541.905945 235.829208,526.185181 
	C186.866882,509.718689 156.491730,474.850189 141.184891,426.605255 
	C149.295792,424.882385 156.496338,423.352905 164.251282,421.705627 
	C169.927277,439.397827 178.755371,456.204651 192.255508,470.713928 
M165.504211,431.030243 
	C163.785950,429.056152 162.096756,425.459503 160.343704,425.428101 
	C155.990845,425.350128 151.557343,426.718567 147.279297,427.937866 
	C146.354721,428.201385 145.190247,430.460632 145.435837,431.490875 
	C146.393845,435.509796 147.548889,439.547729 149.213730,443.321320 
	C158.514587,464.402832 171.444580,482.836792 189.193573,497.765289 
	C202.284103,508.775604 216.663467,517.601501 232.766525,523.337158 
	C251.535660,530.022400 270.872040,532.306580 290.866058,531.197754 
	C309.820251,530.146606 327.353729,524.708008 344.246582,516.758728 
	C350.570251,513.782959 356.318512,509.584381 362.574768,505.794464 
	C357.987946,500.332458 354.181000,495.799164 350.241852,491.108398 
	C349.195831,491.573669 348.083740,491.924164 347.122131,492.518219 
	C336.921967,498.819427 326.170837,503.752960 314.666260,507.341125 
	C299.124176,512.188599 283.135345,513.686890 267.356995,511.568634 
	C245.149384,508.587219 224.626160,500.658081 206.543655,486.508575 
	C187.818268,471.856018 174.415970,453.691711 165.504211,431.030243 
z"/>
<path fill="#4770B3" opacity="1.000000" stroke="none" 
	d="
M234.718506,444.266602 
	C212.694977,424.371552 204.057892,400.029846 210.917221,371.503723 
	C217.420166,344.459747 234.949066,326.608398 261.690430,318.786591 
	C293.210510,309.566956 326.510010,323.539246 343.146027,352.180939 
	C359.702332,380.685455 355.076599,416.566864 331.874329,439.615448 
	C304.614288,466.694916 264.714600,468.701508 234.718506,444.266602 
M212.141205,373.056641 
	C211.761780,376.011261 211.187912,378.955780 211.033920,381.922119 
	C209.873032,404.284393 216.197159,423.642578 232.809677,439.508911 
	C250.611252,456.510956 271.702881,462.161407 295.149841,457.559692 
	C317.055054,453.260620 333.210327,439.946594 343.298645,420.093933 
	C349.361450,408.163055 351.664337,395.433685 350.275238,381.644562 
	C347.764923,356.725372 335.116547,338.917023 314.157928,326.742706 
	C301.416229,319.341339 287.365356,316.954407 272.453674,318.848236 
	C253.116425,321.304077 237.938187,330.442505 225.788696,345.319916 
	C219.266953,353.306000 215.394684,362.547028 212.141205,373.056641 
z"/>
<path fill="#111C33" opacity="1.000000" stroke="none" 
	d="
M519.529175,318.601105 
	C522.162170,333.601105 512.336121,344.311005 498.960449,341.541565 
	C490.648926,339.820618 485.164490,333.172058 484.920715,324.521576 
	C484.678864,315.939728 489.871796,308.914978 498.036987,306.778442 
	C506.604889,304.536591 514.031494,307.742493 518.193420,315.509399 
	C518.661255,316.382446 518.984497,317.333008 519.529175,318.601105 
z"/>
<path fill="#4770B3" opacity="1.000000" stroke="none" 
	d="
M190.964905,306.990173 
	C178.145218,321.369202 169.360123,337.593964 164.370270,355.282837 
	C156.665787,353.424988 149.360229,351.663330 141.475449,349.761993 
	C151.129608,314.659576 171.637283,286.738098 202.477158,266.508545 
	C231.692352,247.344681 263.890350,240.487640 298.018829,244.223450 
	C296.468811,252.156067 295.022614,259.557465 293.507233,267.312836 
	C253.429199,263.902008 219.107498,277.001160 190.964905,306.990173 
M271.300934,245.975815 
	C268.471008,246.000046 265.566132,245.613297 262.823029,246.113556 
	C240.980850,250.096848 220.227463,256.644562 201.606064,269.487488 
	C177.830841,285.884949 160.271820,307.112549 148.863434,333.498413 
	C146.811310,338.244629 145.627960,343.366516 144.011230,348.415741 
	C148.360718,349.147858 152.174286,349.145386 155.454620,350.466705 
	C164.136093,353.963684 162.808304,351.142761 165.885483,344.995789 
	C170.846588,335.085510 175.195023,324.727020 181.327759,315.580750 
	C188.901230,304.285797 198.346619,294.161072 210.355316,287.387573 
	C221.712509,280.981506 233.431488,275.016266 245.510620,270.144745 
	C258.754089,264.803619 273.022003,264.402496 287.184357,265.078796 
	C290.770935,265.250092 292.410828,263.977203 292.910156,260.614899 
	C293.467957,256.859100 294.328247,253.134033 294.618225,249.361877 
	C294.699341,248.306793 293.270569,246.193695 292.469238,246.160965 
	C285.733917,245.885925 278.983490,245.982071 271.300934,245.975815 
z"/>
<path fill="#4770B3" opacity="1.000000" stroke="none" 
	d="
M407.534485,442.386169 
	C402.545715,439.783295 397.853333,437.398224 393.263702,435.065369 
	C412.839661,379.303345 399.731842,331.978333 356.593506,292.753479 
	C360.529480,286.509460 364.544586,280.139923 368.897888,273.233887 
	C394.490631,293.046722 412.013489,319.007782 420.566498,350.781189 
	C429.341583,383.379517 426.898071,415.276215 413.040100,446.836639 
	C410.858856,445.064362 409.344849,443.834167 407.534485,442.386169 
M384.555328,321.952423 
	C406.718384,357.161499 409.641418,394.442139 395.922485,433.557526 
	C400.440979,435.981293 404.663910,437.925415 408.529053,440.423279 
	C411.519135,442.355621 413.280548,442.562256 414.249237,438.668030 
	C416.837799,428.261810 419.786072,417.935333 422.049133,407.460022 
	C425.876282,389.744812 423.535278,372.061890 419.573914,354.799744 
	C415.351746,336.401306 407.867065,319.053253 395.937866,304.202759 
	C388.912476,295.457001 380.704742,287.656952 372.963623,279.493286 
	C371.254425,277.690796 369.317169,277.067230 367.617432,279.685028 
	C364.862457,283.928040 362.091858,288.160858 359.993408,291.377716 
	C368.211212,301.561493 376.188751,311.447540 384.555328,321.952423 
z"/>
<path fill="#172238" opacity="1.000000" stroke="none" 
	d="
M677.169067,361.395752 
	C676.555847,359.521973 675.997314,357.147034 675.267334,354.043091 
	C668.132690,354.043091 660.696533,353.915070 653.278748,354.224701 
	C652.463257,354.258759 651.121643,356.790192 651.094421,358.184143 
	C650.903259,368.004028 650.992493,377.829346 650.992249,387.652954 
	C650.991760,409.298157 651.124207,430.944855 650.882935,452.587372 
	C650.832642,457.106506 652.208069,458.342255 656.540894,458.093658 
	C662.681213,457.741364 668.856873,458.005524 675.630127,458.244293 
	C676.551575,458.682831 676.860291,458.883301 677.169006,459.083771 
	C675.193787,459.411591 673.222656,459.990204 671.242676,460.022156 
	C664.125305,460.137024 657.005005,460.067200 649.647095,460.067200 
	C649.647095,423.928986 649.647095,388.241882 649.647095,352.264465 
	C658.797913,352.264465 667.708740,352.264465 677.223694,352.264465 
	C677.223694,355.092621 677.223694,357.993622 677.169067,361.395752 
z"/>
<path fill="#172238" opacity="1.000000" stroke="none" 
	d="
M716.072632,458.014526 
	C722.630554,458.010864 729.199097,457.779938 735.742493,458.086548 
	C739.839905,458.278534 741.150574,457.041931 741.098877,452.829651 
	C740.878784,434.896362 740.745422,416.952576 741.173828,399.026794 
	C741.295898,393.920563 743.221069,388.801117 744.748840,383.819427 
	C745.201111,382.344513 747.120728,381.319550 748.725708,380.071655 
	C744.320435,385.429504 742.690430,391.802307 742.719055,398.858307 
	C742.793701,417.273651 742.708008,435.689606 742.686768,454.105316 
	C742.684692,455.910522 742.686584,457.715729 742.686584,459.775238 
	C733.227722,459.775238 724.162170,459.775238 715.247192,459.291473 
	C715.622742,458.543335 715.847717,458.278961 716.072632,458.014526 
z"/>
<path fill="#040C1D" opacity="1.000000" stroke="none" 
	d="
M499.548035,352.186218 
	C497.022919,353.126556 494.068329,353.990845 490.272888,355.101074 
	C490.217285,356.051788 490.028076,357.789551 490.027100,359.527435 
	C490.009766,390.593872 489.964142,421.660553 490.129517,452.726105 
	C490.140656,454.821106 491.780396,456.907471 492.750061,459.402588 
	C492.286743,459.851624 491.736145,459.895905 490.633911,459.632812 
	C489.611755,459.198669 489.141205,459.071899 488.670624,458.945129 
	C488.560852,456.804108 488.357361,454.663208 488.355347,452.522095 
	C488.325226,420.629333 488.321686,388.736572 488.312012,356.843811 
	C488.311554,355.390869 488.311920,353.937927 488.311920,352.110138 
	C492.214478,352.110138 495.666504,352.110138 499.548035,352.186218 
z"/>
<path fill="#040C1D" opacity="1.000000" stroke="none" 
	d="
M516.534485,458.515442 
	C515.924683,457.341461 515.060852,455.723145 515.057373,454.102936 
	C514.984192,420.453766 515.008728,386.804382 515.016235,352.702393 
	C515.570557,353.717865 516.600464,355.184631 516.604492,356.654236 
	C516.697510,390.459412 516.678894,424.264862 516.534485,458.515442 
z"/>
<path fill="#040C1D" opacity="1.000000" stroke="none" 
	d="
M677.353638,458.712372 
	C676.860291,458.883301 676.551575,458.682831 676.095581,458.246704 
	C675.964294,437.637878 675.980286,417.264679 676.266296,396.442139 
	C676.895508,396.006317 677.254822,396.019867 677.614075,396.033417 
	C677.588806,416.802612 677.563538,437.571777 677.353638,458.712372 
z"/>
<path fill="#040C1D" opacity="1.000000" stroke="none" 
	d="
M935.193848,458.568390 
	C934.693787,457.133514 934.052673,455.251709 934.048706,453.368500 
	C933.983093,422.317719 933.997559,391.266815 933.994202,360.215912 
	C933.994019,358.419128 933.994202,356.622314 933.994202,354.955536 
	C931.774658,354.181610 930.002136,353.563568 928.124084,352.584991 
	C929.569641,352.171051 931.120728,352.117645 933.396301,352.407104 
	C934.434631,352.828918 934.748474,352.907898 935.062378,352.986847 
	C935.173767,354.799133 935.381836,356.611420 935.382080,358.423706 
	C935.385864,391.656067 935.364929,424.888428 935.193848,458.568390 
z"/>
<path fill="#172238" opacity="1.000000" stroke="none" 
	d="
M789.845825,355.690796 
	C784.955444,354.629517 779.916443,353.078033 774.779968,351.984009 
	C763.725220,349.629425 753.449707,351.517792 744.175110,358.202576 
	C743.543274,358.658051 742.649658,358.750427 741.517700,359.028687 
	C753.109436,347.542847 773.607666,346.005219 789.845825,355.690796 
z"/>
<path fill="#172238" opacity="1.000000" stroke="none" 
	d="
M728.897766,356.665222 
	C723.956116,355.290039 718.931824,353.319672 713.741516,352.004486 
	C704.205688,349.588074 695.174927,351.407013 686.637329,356.120178 
	C685.796997,356.584076 684.774231,356.717590 683.463501,357.016479 
	C695.046509,346.985687 714.532166,346.702698 728.897766,356.665222 
z"/>
<path fill="#172238" opacity="1.000000" stroke="none" 
	d="
M781.053040,457.015106 
	C789.157349,457.708740 797.261719,458.402344 805.723145,459.126526 
	C805.849609,456.730164 805.925964,455.282654 806.255310,453.418213 
	C806.849060,452.990662 807.189819,452.980042 807.530579,452.969391 
	C807.630432,455.070648 807.730286,457.171875 807.866760,460.045227 
	C798.723511,460.045227 789.925842,460.087799 781.131470,459.938171 
	C780.610779,459.929321 780.116333,458.375885 780.039612,457.271423 
	C780.664062,457.006165 780.858521,457.010620 781.053040,457.015106 
z"/>
<path fill="#040C1D" opacity="1.000000" stroke="none" 
	d="
M716.049194,457.544861 
	C715.847717,458.278961 715.622742,458.543335 715.158752,458.919037 
	C714.814392,440.333740 714.712097,421.637115 714.600769,402.940552 
	C714.583008,399.960510 714.524536,396.980743 714.901489,393.512207 
	C715.547058,392.992157 715.775940,392.960693 716.004883,392.929199 
	C716.011841,414.311188 716.018860,435.693176 716.049194,457.544861 
z"/>
<path fill="#040C1D" opacity="1.000000" stroke="none" 
	d="
M781.034607,456.545166 
	C780.858521,457.010620 780.664062,457.006165 780.178223,456.984680 
	C779.835815,438.787415 779.789124,420.607208 779.728821,402.427002 
	C779.720642,399.947937 779.645081,397.469116 779.983093,394.507904 
	C780.578613,394.001709 780.791748,393.977783 781.004883,393.953888 
	C781.008667,414.661011 781.012451,435.368134 781.034607,456.545166 
z"/>
<path fill="#172238" opacity="1.000000" stroke="none" 
	d="
M682.488525,382.346375 
	C682.437378,377.660370 686.645325,376.510071 689.945129,375.325073 
	C696.245239,373.062439 702.591675,373.131317 707.955505,378.598022 
	C698.215942,373.689209 690.162781,374.712585 682.488525,382.346375 
z"/>
<path fill="#172238" opacity="1.000000" stroke="none" 
	d="
M805.973145,385.990234 
	C802.981567,378.259674 799.990051,370.529083 796.989502,362.430389 
	C803.305786,368.471497 805.624512,376.628082 806.752991,385.583191 
	C806.447815,385.995758 805.973145,385.990234 805.973145,385.990234 
z"/>
<path fill="#172238" opacity="1.000000" stroke="none" 
	d="
M752.391113,377.909485 
	C756.885620,372.334015 766.353455,372.498230 772.936646,378.685699 
	C766.461121,375.064301 759.732788,374.576324 752.391113,377.909485 
z"/>
<path fill="#040C1D" opacity="1.000000" stroke="none" 
	d="
M805.981201,386.459778 
	C805.973145,385.990234 806.447815,385.995758 806.685120,386.002167 
	C807.185913,393.018555 807.449463,400.028503 807.363525,407.494019 
	C806.675598,407.982452 806.337097,408.015411 805.998535,408.048340 
	C805.995422,401.008667 805.992310,393.968994 805.981201,386.459778 
z"/>
<path fill="#040C1D" opacity="1.000000" stroke="none" 
	d="
M807.625427,452.511780 
	C807.189819,452.980042 806.849060,452.990662 806.251709,453.017303 
	C805.996765,446.991180 805.998413,440.949005 806.251465,434.452637 
	C806.839905,434.013641 807.176941,434.028900 807.514038,434.044189 
	C807.582825,440.047516 807.651550,446.050842 807.625427,452.511780 
z"/>
<path fill="#172238" opacity="1.000000" stroke="none" 
	d="
M807.636108,433.589355 
	C807.176941,434.028900 806.839905,434.013641 806.248962,433.982239 
	C805.997803,429.293671 806.000549,424.621246 806.247864,419.476074 
	C806.492493,419.003296 806.984863,418.946472 806.984863,418.946472 
	C806.984863,418.946472 807.479980,418.968414 807.479980,418.968414 
	C807.572754,423.690460 807.665466,428.412476 807.636108,433.589355 
z"/>
<path fill="#172238" opacity="1.000000" stroke="none" 
	d="
M677.751892,395.665527 
	C677.254822,396.019867 676.895508,396.006317 676.266479,395.970184 
	C677.726624,391.662598 679.456482,387.377625 681.541992,383.045105 
	C680.561646,387.097565 679.225708,391.197601 677.751892,395.665527 
z"/>
<path fill="#172238" opacity="1.000000" stroke="none" 
	d="
M774.116699,380.332550 
	C779.156738,381.274017 778.566101,385.859406 779.248779,389.783844 
	C777.413269,386.887146 775.827942,383.773682 774.116699,380.332550 
z"/>
<path fill="#172238" opacity="1.000000" stroke="none" 
	d="
M715.999573,392.540466 
	C715.775940,392.960693 715.547058,392.992157 714.972717,393.053284 
	C713.761108,390.307892 712.894897,387.532776 712.001892,384.379089 
	C713.314819,386.717621 714.654541,389.434692 715.999573,392.540466 
z"/>
<path fill="#040C1D" opacity="1.000000" stroke="none" 
	d="
M807.582642,418.544189 
	C807.479980,418.968414 806.984863,418.946472 806.984863,418.946472 
	C806.984863,418.946472 806.492493,419.003296 806.244751,419.011169 
	C805.996460,416.957703 805.995911,414.896362 806.249023,412.408569 
	C806.837585,412.004150 807.172546,412.026093 807.507568,412.048035 
	C807.566833,414.072021 807.626038,416.095978 807.582642,418.544189 
z"/>
<path fill="#172238" opacity="1.000000" stroke="none" 
	d="
M733.892273,361.693390 
	C732.340637,360.555359 730.708679,359.098022 729.054077,357.293640 
	C730.624939,358.422455 732.218506,359.898285 733.892273,361.693390 
z"/>
<path fill="#172238" opacity="1.000000" stroke="none" 
	d="
M807.637085,411.650879 
	C807.172546,412.026093 806.837585,412.004150 806.250549,411.966919 
	C806.000488,410.910034 806.002502,409.868378 806.001465,408.437561 
	C806.337097,408.015411 806.675598,407.982452 807.269409,407.949768 
	C807.605286,409.051270 807.685913,410.152496 807.637085,411.650879 
z"/>
<path fill="#172238" opacity="1.000000" stroke="none" 
	d="
M736.619385,363.959473 
	C736.564514,364.463562 736.191895,365.031708 735.819275,365.599854 
	C735.211304,364.648804 734.603333,363.697723 733.989807,362.389099 
	C734.756714,362.695557 735.529114,363.359558 736.619385,363.959473 
z"/>
<path fill="#172238" opacity="1.000000" stroke="none" 
	d="
M793.761108,358.748169 
	C792.633606,358.243073 791.359253,357.457611 790.053833,356.318176 
	C791.219971,356.798767 792.417175,357.633270 793.761108,358.748169 
z"/>
<path fill="#172238" opacity="1.000000" stroke="none" 
	d="
M780.996582,393.614868 
	C780.791748,393.977783 780.578613,394.001709 780.044434,394.046631 
	C779.494446,393.257690 779.265564,392.447784 779.086426,391.317383 
	C779.753540,391.756561 780.370911,392.516205 780.996582,393.614868 
z"/>
<path fill="#172238" opacity="1.000000" stroke="none" 
	d="
M738.531189,361.631012 
	C738.425232,362.266449 738.033447,363.056702 737.274658,363.895660 
	C737.353577,363.224854 737.799500,362.505341 738.531189,361.631012 
z"/>
<path fill="#172238" opacity="1.000000" stroke="none" 
	d="
M749.360107,379.982452 
	C749.644287,379.435852 750.235718,378.789398 751.203674,378.165466 
	C750.942566,378.752869 750.304932,379.317719 749.360107,379.982452 
z"/>
<path fill="#172238" opacity="1.000000" stroke="none" 
	d="
M710.120422,381.302856 
	C710.646667,381.619019 711.252319,382.250275 711.826721,383.254303 
	C711.263550,382.957367 710.731750,382.287659 710.120422,381.302856 
z"/>
<path fill="#172238" opacity="1.000000" stroke="none" 
	d="
M488.597992,459.224487 
	C489.141205,459.071899 489.611755,459.198669 490.364288,459.562744 
	C489.939270,459.701294 489.232330,459.602539 488.597992,459.224487 
z"/>
<path fill="#111C33" opacity="1.000000" stroke="none" 
	d="
M935.047241,352.668274 
	C934.748474,352.907898 934.434631,352.828918 933.694458,352.512146 
	C933.856201,352.299408 934.444153,352.324554 935.047241,352.668274 
z"/>
<path fill="#FAFEFD" opacity="1.000000" stroke="none" 
	d="
M1236.647827,341.190887 
	C1252.362061,343.418365 1257.195557,355.129333 1260.531860,367.708740 
	C1264.410522,382.331818 1263.723267,397.100555 1259.750488,411.623169 
	C1258.582520,415.892456 1256.643799,420.102112 1254.307007,423.873657 
	C1245.149902,438.652618 1224.215088,438.984589 1215.352295,424.035675 
	C1211.556519,417.633118 1209.134399,409.991364 1207.863159,402.607086 
	C1205.356323,388.044861 1205.940918,373.390503 1211.092651,359.281982 
	C1215.618530,346.886810 1223.802246,341.108032 1236.647827,341.190887 
z"/>
<path fill="#F8FEFB" opacity="1.000000" stroke="none" 
	d="
M1129.753174,430.845459 
	C1116.648193,439.436768 1100.463501,436.109558 1094.554077,423.900085 
	C1088.647217,411.696075 1093.909424,396.507385 1105.686523,391.768005 
	C1118.369019,386.664246 1132.608398,392.558380 1136.316040,404.900116 
	C1139.198120,414.493683 1137.523315,423.360626 1129.753174,430.845459 
z"/>
<path fill="#FCFDFD" opacity="1.000000" stroke="none" 
	d="
M886.718079,377.006683 
	C903.370422,380.861816 911.311096,399.379578 906.095520,416.361725 
	C901.403809,431.638458 886.478943,439.581085 870.912598,434.876526 
	C868.104858,434.027954 865.304749,432.643677 862.947388,430.902557 
	C852.392151,423.106537 848.581909,405.845276 854.302307,392.764923 
	C859.854004,380.070465 871.770813,374.177704 886.718079,377.006683 
z"/>
<path fill="#2E6CD6" opacity="1.000000" stroke="none" 
	d="
M165.655716,431.384277 
	C174.415970,453.691711 187.818268,471.856018 206.543655,486.508575 
	C224.626160,500.658081 245.149384,508.587219 267.356995,511.568634 
	C283.135345,513.686890 299.124176,512.188599 314.666260,507.341125 
	C326.170837,503.752960 336.921967,498.819427 347.122131,492.518219 
	C348.083740,491.924164 349.195831,491.573669 350.241852,491.108398 
	C354.181000,495.799164 357.987946,500.332458 362.574768,505.794464 
	C356.318512,509.584381 350.570251,513.782959 344.246582,516.758728 
	C327.353729,524.708008 309.820251,530.146606 290.866058,531.197754 
	C270.872040,532.306580 251.535660,530.022400 232.766525,523.337158 
	C216.663467,517.601501 202.284103,508.775604 189.193573,497.765289 
	C171.444580,482.836792 158.514587,464.402832 149.213730,443.321320 
	C147.548889,439.547729 146.393845,435.509796 145.435837,431.490875 
	C145.190247,430.460632 146.354721,428.201385 147.279297,427.937866 
	C151.557343,426.718567 155.990845,425.350128 160.343704,425.428101 
	C162.096756,425.459503 163.785950,429.056152 165.655716,431.384277 
z"/>
<path fill="#2C6CD9" opacity="1.000000" stroke="none" 
	d="
M212.277161,372.658173 
	C215.394684,362.547028 219.266953,353.306000 225.788696,345.319916 
	C237.938187,330.442505 253.116425,321.304077 272.453674,318.848236 
	C287.365356,316.954407 301.416229,319.341339 314.157928,326.742706 
	C335.116547,338.917023 347.764923,356.725372 350.275238,381.644562 
	C351.664337,395.433685 349.361450,408.163055 343.298645,420.093933 
	C333.210327,439.946594 317.055054,453.260620 295.149841,457.559692 
	C271.702881,462.161407 250.611252,456.510956 232.809677,439.508911 
	C216.197159,423.642578 209.873032,404.284393 211.033920,381.922119 
	C211.187912,378.955780 211.761780,376.011261 212.277161,372.658173 
z"/>
<path fill="#2E6CD4" opacity="1.000000" stroke="none" 
	d="
M271.769257,245.971161 
	C278.983490,245.982071 285.733917,245.885925 292.469238,246.160965 
	C293.270569,246.193695 294.699341,248.306793 294.618225,249.361877 
	C294.328247,253.134033 293.467957,256.859100 292.910156,260.614899 
	C292.410828,263.977203 290.770935,265.250092 287.184357,265.078796 
	C273.022003,264.402496 258.754089,264.803619 245.510620,270.144745 
	C233.431488,275.016266 221.712509,280.981506 210.355316,287.387573 
	C198.346619,294.161072 188.901230,304.285797 181.327759,315.580750 
	C175.195023,324.727020 170.846588,335.085510 165.885483,344.995789 
	C162.808304,351.142761 164.136093,353.963684 155.454620,350.466705 
	C152.174286,349.145386 148.360718,349.147858 144.011230,348.415741 
	C145.627960,343.366516 146.811310,338.244629 148.863434,333.498413 
	C160.271820,307.112549 177.830841,285.884949 201.606064,269.487488 
	C220.227463,256.644562 240.980850,250.096848 262.823029,246.113556 
	C265.566132,245.613297 268.471008,246.000046 271.769257,245.971161 
z"/>
<path fill="#2E6BD5" opacity="1.000000" stroke="none" 
	d="
M384.360840,321.643005 
	C376.188751,311.447540 368.211212,301.561493 359.993408,291.377716 
	C362.091858,288.160858 364.862457,283.928040 367.617432,279.685028 
	C369.317169,277.067230 371.254425,277.690796 372.963623,279.493286 
	C380.704742,287.656952 388.912476,295.457001 395.937866,304.202759 
	C407.867065,319.053253 415.351746,336.401306 419.573914,354.799744 
	C423.535278,372.061890 425.876282,389.744812 422.049133,407.460022 
	C419.786072,417.935333 416.837799,428.261810 414.249237,438.668030 
	C413.280548,442.562256 411.519135,442.355621 408.529053,440.423279 
	C404.663910,437.925415 400.440979,435.981293 395.922485,433.557526 
	C409.641418,394.442139 406.718384,357.161499 384.360840,321.643005 
z"/>
</svg>